<svg id="bg" xmlns="http://www.w3.org/2000/svg" viewBox="0 0 25 25"><defs><style>.cls-1{fill:#757575;}</style></defs><path class="cls-1" d="M12.12,8.53v3.59H8.55a10.16,10.16,0,0,1,.32-1.91,13.06,13.06,0,0,1,.59-1.68ZM8.53,12.88a9,9,0,0,0,.81,3.59h2.78V12.88Zm4.35,0v3.59h2.66a10.6,10.6,0,0,0,.59-1.68,12.09,12.09,0,0,0,.32-1.91Zm2.78-4.35H12.88v3.59h3.59A9,9,0,0,0,15.66,8.53Zm5.34,4A8.49,8.49,0,0,1,12.5,21a8.67,8.67,0,0,1-4.12-1.05L4.56,21a.13.13,0,0,1-.09,0,.38.38,0,0,1-.26-.11l0,0a.38.38,0,0,1-.1-.38l1.06-3.74A8.36,8.36,0,0,1,4,12.48a8.5,8.5,0,0,1,17,0Zm-1.7,0a.38.38,0,0,0-.38-.38H17.2a9.67,9.67,0,0,0-.73-3.59h.94a.38.38,0,1,0,0-.75H16.13a10.71,10.71,0,0,0-1.25-1.93.38.38,0,1,0-.59.47,9.32,9.32,0,0,1,1,1.48h-2.4V6.1a.38.38,0,1,0-.76,0V7.8H9.82a13.34,13.34,0,0,1,.9-1.48.38.38,0,0,0-.05-.53.39.39,0,0,0-.53.06A11.66,11.66,0,0,0,9,7.78H7.59a.38.38,0,1,0,0,.75H8.65a11.55,11.55,0,0,0-.84,3.59H6.08a.38.38,0,0,0,0,.76H7.8a9.67,9.67,0,0,0,.73,3.59H7.59a.38.38,0,1,0,0,.75H8.87a10.71,10.71,0,0,0,1.25,1.93.37.37,0,1,0,.59-.45,9.79,9.79,0,0,1-1-1.48h2.4v1.7a.38.38,0,1,0,.76,0v-1.7h2.3a13.34,13.34,0,0,1-.9,1.48.38.38,0,0,0,.05.53.41.41,0,0,0,.23.07.37.37,0,0,0,.3-.15A11.66,11.66,0,0,0,16,17.22h1.4a.38.38,0,1,0,0-.75H16.35a11.55,11.55,0,0,0,.84-3.59h1.73A.38.38,0,0,0,19.3,12.5Z"/></svg>