<svg id="bg" xmlns="http://www.w3.org/2000/svg" viewBox="0 0 25 25"><defs><style>.cls-1{fill:#757575;}</style></defs><path class="cls-1" d="M5.844,6.637a.5.5,0,0,0-.648,0L1.706,9.628a.5.5,0,0,0-.175.379v4.986a.5.5,0,0,0,.5.5H6.517V11a1.5,1.5,0,0,1,.5-1.118L8.3,8.745Z"/><path class="cls-1" d="M12.831,6.643a.5.5,0,0,0-.662,0L7.682,10.631A.5.5,0,0,0,7.514,11v6.98a.5.5,0,0,0,.5.5h2.494V13a.5.5,0,0,1,.5-.5H14a.5.5,0,0,1,.5.5h0v5.485h2.493a.5.5,0,0,0,.5-.5h0V11a.5.5,0,0,0-.168-.373Z"/><rect class="cls-1" x="11.503" y="13.497" width="1.994" height="4.986"/><path class="cls-1" d="M23.3,9.628,19.8,6.637a.5.5,0,0,0-.648,0L16.7,8.745l1.285,1.141a1.5,1.5,0,0,1,.5,1.118v4.488H22.97a.5.5,0,0,0,.5-.5h0V10.007A.5.5,0,0,0,23.3,9.628Z"/></svg>